SplineFontDB: 3.2
FontName: FanAstr
FullName: FanAstr
FamilyName: FanAstr
Weight: Regular
Copyright: Copyright (c) fANhAN iNSiDE 2021, 
UComments: "2021-7-2: Created with FontForge (http://fontforge.org)"
Version: 001.000
ItalicAngle: 0
UnderlinePosition: -409.6
UnderlineWidth: 204.8
Ascent: 1638
Descent: 410
InvalidEm: 0
LayerCount: 2
Layer: 0 0 "Back" 1
Layer: 1 0 "Fore" 0
XUID: [1021 991 -1287261736 12720]
OS2Version: 0
OS2_WeightWidthSlopeOnly: 0
OS2_UseTypoMetrics: 1
CreationTime: 1625158504
ModificationTime: 1625339381
OS2TypoAscent: 0
OS2TypoAOffset: 1
OS2TypoDescent: 0
OS2TypoDOffset: 1
OS2TypoLinegap: 0
OS2WinAscent: 0
OS2WinAOffset: 1
OS2WinDescent: 0
OS2WinDOffset: 1
HheadAscent: 0
HheadAOffset: 1
HheadDescent: 0
HheadDOffset: 1
OS2Vendor: 'PfEd'
MarkAttachClasses: 1
DEI: 91125
Encoding: UnicodeFull
UnicodeInterp: none
NameList: AGL For New Fonts
DisplaySize: -48
AntiAlias: 1
FitToEm: 0
WinInfo: 9652 38 14
BeginPrivate: 0
EndPrivate
BeginChars: 1114112 21

StartChar: zero
Encoding: 48 48 0
Width: 1900
Flags: HW
LayerCount: 2
Fore
SplineSet
1805 32 m 1
 1592 -187 l 1
 551 898 l 1
 720 1071 l 1
 1805 32 l 1
1101 1222 m 1
 1061 1237.33333333 1018.33333333 1245 973 1245 c 0
 917 1245 873 1232.66666667 841 1208 c 0
 831 1200 787 1157.66666667 709 1081 c 2
 434 806 l 1
 471 770 l 1
 332 627 l 1
 95 861 l 1
 231 1004 l 1
 244.333333333 996 259.666666667 982.666666667 277 964 c 1
 334.333333333 1018 414.333333333 1098.66666667 517 1206 c 0
 569 1260 599.333333333 1291.33333333 608 1300 c 0
 648 1339.33333333 681 1366.66666667 707 1382 c 0
 740.333333333 1401.33333333 776.333333333 1411 815 1411 c 0
 867.666666667 1411 922 1390.66666667 978 1350 c 0
 1026.66666667 1314.66666667 1067.66666667 1272 1101 1222 c 1
541 1247 m 1
 372 1071 l 1
 364 1078.33333333 353 1090 339 1106 c 1
 509 1279 l 1
 541 1247 l 1
EndSplineSet
EndChar

StartChar: one
Encoding: 49 49 1
Width: 2048
Flags: H
LayerCount: 2
Fore
SplineSet
1960 -179 m 1
 1781 -355 l 1
 661 758 l 1
 473 538 311.666666667 246.333333333 177 -117 c 1
 88 -100 l 1
 93.3333333333 92.6666666667 123 284.333333333 177 475 c 0
 236.333333333 683.666666667 317 858.666666667 419 1000 c 1
 108 1433 l 1
 169 1497 l 1
 591 1180 l 1
 772.333333333 1315.33333333 957.333333333 1407 1146 1455 c 0
 1297.33333333 1493 1503.33333333 1513 1764 1515 c 1
 1786 1425 l 1
 1429.33333333 1357.66666667 1114.33333333 1196.33333333 841 941 c 1
 1960 -179 l 1
EndSplineSet
EndChar

StartChar: Ceres
Encoding: 9907 9907 2
Width: 1316
Flags: HW
LayerCount: 2
Fore
SplineSet
1114 932 m 0
 1114 794.666666667 1068.83333333 675.666666667 978.5 575 c 0
 888.166666667 474.333333333 775.666666667 416.333333333 641 401 c 1
 641 0 l 1
 937 0 l 1
 937 -125 l 1
 641 -125 l 1
 641 -410 l 1
 516 -410 l 1
 516 -125 l 1
 220 -125 l 1
 220 0 l 1
 516 0 l 1
 516 522 l 1
 579 522 l 2
 693 522 789.833333333 561.833333333 869.5 641.5 c 0
 949.166666667 721.166666667 989 818 989 932 c 0
 989 1046 949.166666667 1142.83333333 869.5 1222.5 c 0
 789.833333333 1302.16666667 693 1342 579 1342 c 0
 483.666666667 1342 383.666666667 1301.33333333 279 1220 c 1
 202 1319 l 1
 326.666666667 1417.66666667 452.333333333 1467 579 1467 c 0
 727.666666667 1467 854 1415 958 1311 c 0
 1062 1207 1114 1080.66666667 1114 932 c 0
EndSplineSet
EndChar

StartChar: Juno
Encoding: 9909 9909 3
Width: 1474
Flags: HW
LayerCount: 2
Fore
SplineSet
1258 798 m 1
 887 798 l 1
 1149 536 l 1
 1061 447 l 1
 799 709 l 1
 799 0 l 1
 1095 0 l 1
 1095 -125 l 1
 799 -125 l 1
 799 -410 l 1
 674 -410 l 1
 674 -125 l 1
 378 -125 l 1
 378 0 l 1
 674 0 l 1
 674 709 l 1
 412 447 l 1
 324 536 l 1
 586 798 l 1
 216 798 l 1
 216 923 l 1
 586 923 l 1
 324 1184 l 1
 412 1273 l 1
 674 1011 l 1
 674 1420 l 1
 799 1420 l 1
 799 1011 l 1
 1061 1273 l 1
 1149 1184 l 1
 887 923 l 1
 1258 923 l 1
 1258 798 l 1
EndSplineSet
EndChar

StartChar: Pallas
Encoding: 9908 9908 4
Width: 1480
Flags: HW
LayerCount: 2
Fore
SplineSet
1307 891 m 1
 800 376 l 1
 800 0 l 1
 1096 0 l 1
 1096 -125 l 1
 800 -125 l 1
 800 -410 l 1
 675 -410 l 1
 675 -125 l 1
 379 -125 l 1
 379 0 l 1
 675 0 l 1
 675 381 l 1
 173 891 l 1
 740 1467 l 1
 1307 891 l 1
1132 891 m 1
 740 1289 l 1
 348 891 l 1
 740 493 l 1
 1132 891 l 1
EndSplineSet
EndChar

StartChar: Vesta
Encoding: 9910 9910 5
Width: 1592
Flags: HW
LayerCount: 2
Fore
SplineSet
859 635 m 1
 734 635 l 1
 734 1274 l 1
 859 1274 l 1
 859 635 l 1
1342 561 m 1
 1156 561 l 1
 796 133 l 1
 436 561 l 1
 250 561 l 1
 250 686 l 1
 494 686 l 1
 796 327 l 1
 1098 686 l 1
 1342 686 l 1
 1342 561 l 1
1502 0 m 1
 1156 0 l 1
 796 -347 l 1
 436 0 l 1
 90 0 l 1
 90 125 l 1
 486 125 l 1
 796 -173 l 1
 1106 125 l 1
 1502 125 l 1
 1502 0 l 1
EndSplineSet
EndChar

StartChar: Chiron
Encoding: 9911 9911 6
Width: 1034
Flags: HW
LayerCount: 2
Fore
SplineSet
941 -117 m 0
 941 -211 891.666992188 -285 793 -339 c 0
 711 -383.666992188 619 -406 517 -406 c 0
 416.333007812 -406 324.666992188 -383.333007812 242 -338 c 0
 142.666992188 -283.333007812 93 -209.666992188 93 -117 c 0
 93 -33.6669921875 132.666992188 34.3330078125 212 87 c 0
 278 130.333007812 358.666992188 157.333007812 454 168 c 1
 454 1420 l 1
 579 1420 l 1
 579 1141 l 1
 829 1377 l 1
 915 1286 l 1
 640 1027 l 1
 915 767 l 1
 829 676 l 1
 579 913 l 1
 579 168 l 1
 673.666992188 157.333007812 754.333007812 130 821 86 c 0
 901 33.3330078125 941 -34.3330078125 941 -117 c 0
816 -117 m 0
 816 -65 777.666992188 -23 701 9 c 0
 640.333007812 34.3330078125 579 47 517 47 c 0
 453.666992188 47 392.333007812 34.6669921875 333 10 c 0
 256.333007812 -21.3330078125 218 -63.6669921875 218 -117 c 0
 218 -169 256.333007812 -211 333 -243 c 0
 393.666992188 -268.333007812 455 -281 517 -281 c 0
 580.333007812 -281 641.666992188 -268.666992188 701 -244 c 0
 777.666992188 -212.666992188 816 -170.333007812 816 -117 c 0
EndSplineSet
EndChar

StartChar: BlackMoonLilith
Encoding: 9912 9912 7
Width: 1234
Flags: HW
LayerCount: 2
Fore
SplineSet
1061 270 m 1
 982.333333333 250 911 240 847 240 c 0
 784.333333333 240 722 249.333333333 660 268 c 1
 660 0 l 1
 956 0 l 1
 956 -125 l 1
 660 -125 l 1
 660 -410 l 1
 535 -410 l 1
 535 -125 l 1
 239 -125 l 1
 239 0 l 1
 535 0 l 1
 535 319 l 1
 427 376.333333333 340.333333333 454.666666667 275 554 c 0
 207 658 173 769.333333333 173 888 c 0
 173 1064 241.666666667 1216.66666667 379 1346 c 0
 513.666666667 1472.66666667 669.666666667 1536 847 1536 c 0
 911 1536 982.333333333 1526 1061 1506 c 1
 1060 1498 l 1
 925.333333333 1496.66666667 814.333333333 1426 727 1286 c 0
 651 1164 613 1031.33333333 613 888 c 0
 613 744.666666667 651 612 727 490 c 0
 814.333333333 350 925.333333333 279.333333333 1060 278 c 1
 1061 270 l 1
EndSplineSet
EndChar

StartChar: Ophiuchus
Encoding: 9934 9934 8
Width: 2048
Flags: H
LayerCount: 2
Fore
SplineSet
1917 634 m 0
 1917 555.333333333 1891.16666667 489.5 1839.5 436.5 c 0
 1787.83333333 383.5 1722.66666667 357 1644 357 c 0
 1618 357 1574 364.666666667 1512 380 c 1
 1512 166 l 2
 1512 32 1558.33333333 -35 1651 -35 c 0
 1707.66666667 -35 1753 -9.33333333333 1787 42 c 1
 1766.33333333 -93.3333333333 1668.33333333 -161 1493 -161 c 0
 1377.66666667 -161 1295.33333333 -107.666666667 1246 -1 c 1
 1186 -107.666666667 1069.66666667 -161 897 -161 c 0
 823 -161 760 -150 708 -128 c 0
 637.333333333 -97.3333333333 602 -50.3333333333 602 13 c 2
 602 758 l 1
 583.333333333 769.333333333 552 782 508 796 c 0
 464 810 432.333333333 817 413 817 c 0
 367 817 327.833333333 802.166666667 295.5 772.5 c 0
 263.166666667 742.833333333 247 705.333333333 247 660 c 0
 247 598.666666667 280 531.333333333 346 458 c 1
 271 382 l 1
 231.666666667 414.666666667 198.5 458 171.5 512 c 0
 144.5 566 131 617.666666667 131 667 c 0
 131 744.333333333 156.833333333 809.5 208.5 862.5 c 0
 260.166666667 915.5 324.666666667 942 402 942 c 0
 429.333333333 942 463 936.333333333 503 925 c 0
 562.333333333 909 595.333333333 900.333333333 602 899 c 1
 602 1368 l 1
 866 1368 l 1
 866 795 l 1
 1246 618 l 1
 1246 1368 l 1
 1512 1368 l 1
 1512 515 l 1
 1579.33333333 493 1620.33333333 482 1635 482 c 0
 1681 482 1720.16666667 496.666666667 1752.5 526 c 0
 1784.83333333 555.333333333 1801 593 1801 639 c 0
 1801 702.333333333 1768 769.666666667 1702 841 c 1
 1778 916 l 1
 1870.66666667 833.333333333 1917 739.333333333 1917 634 c 0
1246 144 m 2
 1246 476 l 1
 866 649 l 1
 866 101 l 2
 866 24.3333333333 918 -14 1022 -14 c 0
 1075.33333333 -14 1124 -1.33333333333 1168 24 c 0
 1220 54.6666666667 1246 94.6666666667 1246 144 c 2
EndSplineSet
EndChar

StartChar: Aries
Encoding: 9800 9800 9
Width: 2369
Flags: HW
LayerCount: 2
Fore
SplineSet
2196 1110 m 0
 2196 995.333333333 2160.33333333 872 2089 740 c 1
 1938 740 l 1
 2011.33333333 870.666666667 2048 990.666666667 2048 1100 c 0
 2048 1176.66666667 2032.66666667 1241.66666667 2002 1295 c 0
 1964.66666667 1361 1910.66666667 1394 1840 1394 c 0
 1706.66666667 1394 1582.33333333 1245.66666667 1467 949 c 0
 1403.66666667 785.666666667 1352.33333333 580.333333333 1313 333 c 0
 1277 103.666666667 1259 -108 1259 -302 c 2
 1259 -395 l 1
 1111 -395 l 1
 1111 -296 l 2
 1111 -112 1093.66666667 90.6666666667 1059 312 c 0
 1021.66666667 549.333333333 973.666666667 746.666666667 915 904 c 0
 795.666666667 1222.66666667 667 1382 529 1382 c 0
 459 1382 405.333333333 1349.66666667 368 1285 c 0
 336.666666667 1231.66666667 321 1167.33333333 321 1092 c 0
 321 978.666666667 357.666666667 861.333333333 431 740 c 1
 281 740 l 1
 209 870.666666667 173 993 173 1107 c 0
 173 1219 204.333333333 1314 267 1392 c 0
 333.666666667 1476 421.666666667 1518 531 1518 c 0
 738.333333333 1518 901.666666667 1355 1021 1029 c 0
 1099 814.333333333 1149.33333333 567.333333333 1172 288 c 1
 1197 288 l 1
 1215.66666667 562 1266 809.333333333 1348 1030 c 0
 1468 1355.33333333 1631.66666667 1518 1839 1518 c 0
 1948.33333333 1518 2036.33333333 1476.33333333 2103 1393 c 0
 2165 1316.33333333 2196 1222 2196 1110 c 0
EndSplineSet
EndChar

StartChar: Taurus
Encoding: 9801 9801 10
Width: 2159
Flags: HW
LayerCount: 2
Fore
SplineSet
1986 1369 m 1
 1960 1369 l 2
 1868 1369 1785.66666667 1304 1713 1174 c 2
 1654 1068 l 2
 1609.33333333 988 1569.66666667 929.333333333 1535 892 c 0
 1489 842.666666667 1430.66666667 804 1360 776 c 1
 1596.66666667 645.333333333 1715 457 1715 211 c 0
 1715 39.6666666667 1652.16666667 -108.166666667 1526.5 -232.5 c 0
 1400.83333333 -356.833333333 1252 -419 1080 -419 c 0
 908.666666667 -419 759.833333333 -356.833333333 633.5 -232.5 c 0
 507.166666667 -108.166666667 444 39.6666666667 444 211 c 0
 444 331.666666667 476.666666667 442.333333333 542 543 c 0
 603.333333333 637.666666667 689 715.333333333 799 776 c 1
 728.333333333 804 670 842.666666667 624 892 c 0
 589.333333333 929.333333333 549.666666667 988 505 1068 c 2
 446 1174 l 2
 373.333333333 1304 291.333333333 1369 200 1369 c 2
 173 1369 l 1
 173 1480 l 1
 246 1480 l 2
 376.666666667 1480 494.333333333 1388.66666667 599 1206 c 2
 680 1065 l 2
 731.333333333 976.333333333 785 913.333333333 841 876 c 0
 903 834.666666667 982.666666667 814 1080 814 c 0
 1177.33333333 814 1257 834.666666667 1319 876 c 0
 1375 913.333333333 1428.66666667 976.333333333 1480 1065 c 2
 1561 1206 l 2
 1665.66666667 1388.66666667 1783 1480 1913 1480 c 2
 1986 1480 l 1
 1986 1369 l 1
1567 208 m 0
 1567 343.333333333 1519.66666667 457.666666667 1425 551 c 0
 1330.33333333 644.333333333 1215.33333333 691 1080 691 c 0
 944.666666667 691 829.5 644.333333333 734.5 551 c 0
 639.5 457.666666667 592 343.333333333 592 208 c 0
 592 74 639.833333333 -39.3333333333 735.5 -132 c 0
 831.166666667 -224.666666667 946 -271 1080 -271 c 0
 1214 -271 1328.66666667 -224.5 1424 -131.5 c 0
 1519.33333333 -38.5 1567 74.6666666667 1567 208 c 0
EndSplineSet
EndChar

StartChar: Gemini
Encoding: 9802 9802 11
Width: 1975
Flags: HW
LayerCount: 2
Fore
SplineSet
1802 -99 m 1
 1550 -33 1278.33333333 0 987 0 c 0
 695.666666667 0 424.333333333 -33 173 -99 c 1
 173 24 l 1
 310.333333333 60.6666666667 437.666666667 86 555 100 c 1
 555 1375 l 1
 428.333333333 1387 301 1411.33333333 173 1448 c 1
 173 1572 l 1
 394.333333333 1510.66666667 665.666666667 1480 987 1480 c 0
 1309 1480 1580.66666667 1510.66666667 1802 1572 c 1
 1802 1448 l 1
 1674 1411.33333333 1546.33333333 1387 1419 1375 c 1
 1419 100 l 1
 1536.33333333 86 1664 60.6666666667 1802 24 c 1
 1802 -99 l 1
1271 109 m 1
 1271 1365 l 1
 1195 1359.66666667 1100.33333333 1357 987 1357 c 0
 873.666666667 1357 779 1359.66666667 703 1365 c 1
 703 109 l 1
 787.666666667 118.333333333 882.333333333 123 987 123 c 0
 1091.66666667 123 1186.33333333 118.333333333 1271 109 c 1
EndSplineSet
EndChar

StartChar: Cancer
Encoding: 9803 9803 12
Width: 2234
Flags: HW
LayerCount: 2
Fore
SplineSet
2061 1120 m 1
 1751 1262 1451.33333333 1333 1162 1333 c 0
 972.666666667 1333 818.333333333 1308 699 1258 c 1
 850.333333333 1182.66666667 926 1065.66666667 926 907 c 0
 926 802.333333333 889 713.333333333 815 640 c 0
 741 566.666666667 651.666666667 530 547 530 c 0
 443 530 354.666666667 566.5 282 639.5 c 0
 209.333333333 712.5 173 801 173 905 c 0
 173 1106.33333333 307.333333333 1259.33333333 576 1364 c 0
 775.333333333 1442 993.666666667 1481 1231 1481 c 0
 1493.66666667 1481 1770.33333333 1414.33333333 2061 1281 c 1
 2061 1120 l 1
2061 575 m 0
 2061 374.333333333 1926.66666667 221.333333333 1658 116 c 0
 1458.66666667 38.6666666667 1240.33333333 0 1003 0 c 0
 741 0 464.333333333 66.3333333333 173 199 c 1
 173 360 l 1
 483 218.666666667 782.666666667 148 1072 148 c 0
 1261.33333333 148 1415.33333333 172.666666667 1534 222 c 1
 1383.33333333 299.333333333 1308 416.333333333 1308 573 c 0
 1308 677 1345.16666667 765.833333333 1419.5 839.5 c 0
 1493.83333333 913.166666667 1583 950 1687 950 c 0
 1791 950 1879.33333333 913.5 1952 840.5 c 0
 2024.66666667 767.5 2061 679 2061 575 c 0
1962 570 m 0
 1962 648 1935.5 714.333333333 1882.5 769 c 0
 1829.5 823.666666667 1764 851 1686 851 c 0
 1608 851 1542 824 1488 770 c 0
 1434 716 1407 650 1407 572 c 0
 1407 496 1434.66666667 431 1490 377 c 0
 1545.33333333 323 1611 296 1687 296 c 0
 1763.66666667 296 1828.66666667 322.5 1882 375.5 c 0
 1935.33333333 428.5 1962 493.333333333 1962 570 c 0
827 908 m 0
 827 984.666666667 799.333333333 1049.83333333 744 1103.5 c 0
 688.666666667 1157.16666667 622.666666667 1184 546 1184 c 0
 468.666666667 1184 403.666666667 1157.66666667 351 1105 c 0
 298.333333333 1052.33333333 272 987.333333333 272 910 c 0
 272 832.666666667 298.666666667 766.5 352 711.5 c 0
 405.333333333 656.5 470.666666667 629 548 629 c 0
 626 629 692 656 746 710 c 0
 800 764 827 830 827 908 c 0
EndSplineSet
EndChar

StartChar: Leo
Encoding: 9804 9804 13
Width: 1928
Flags: HW
LayerCount: 2
Fore
SplineSet
1755 -260 m 1
 1639.66666667 -366 1529 -419 1423 -419 c 0
 1332.33333333 -419 1255.5 -388.833333333 1192.5 -328.5 c 0
 1129.5 -268.166666667 1098 -192.666666667 1098 -102 c 0
 1098 16.6666666667 1160.66666667 209.333333333 1286 476 c 2
 1382 680 l 2
 1456 837.333333333 1493 965.333333333 1493 1064 c 0
 1493 1188 1457.66666667 1287.66666667 1387 1363 c 0
 1314.33333333 1441 1216.66666667 1480 1094 1480 c 0
 982 1480 891 1446.5 821 1379.5 c 0
 751 1312.5 716 1223.33333333 716 1112 c 0
 716 1010.66666667 748.666666667 892 814 756 c 2
 853 675 l 2
 917.666666667 541 950 442.333333333 950 379 c 0
 950 275 911.5 185.833333333 834.5 111.5 c 0
 757.5 37.1666666667 666.666666667 0 562 0 c 0
 453.333333333 0 361.333333333 38 286 114 c 0
 210.666666667 190 173 282.333333333 173 391 c 0
 173 496.333333333 210 587 284 663 c 0
 358 739 447.333333333 777 552 777 c 0
 589.333333333 777 630.666666667 770 676 756 c 1
 604 894 568 1016 568 1122 c 0
 568 1266 620.333333333 1383.33333333 725 1474 c 0
 824.333333333 1560.66666667 947 1604 1093 1604 c 0
 1257.66666667 1604 1389.66666667 1556.66666667 1489 1462 c 0
 1590.33333333 1365.33333333 1641 1235.33333333 1641 1072 c 0
 1641 984 1627.33333333 899.333333333 1600 818 c 0
 1586 775.333333333 1552 695.333333333 1498 578 c 2
 1429 428 l 2
 1306.33333333 161.333333333 1245 -10.3333333333 1245 -87 c 0
 1245 -142.333333333 1261.83333333 -189 1295.5 -227 c 0
 1329.16666667 -265 1373.33333333 -284 1428 -284 c 0
 1498 -284 1578 -244.333333333 1668 -165 c 1
 1755 -260 l 1
827 388 m 0
 827 466 801 531.833333333 749 585.5 c 0
 697 639.166666667 632 666 554 666 c 0
 478 666 414 639 362 585 c 0
 310 531 284 466 284 390 c 0
 284 312 310 246 362 192 c 0
 414 138 478.666666667 111 556 111 c 0
 632.666666667 111 697 138 749 192 c 0
 801 246 827 311.333333333 827 388 c 0
EndSplineSet
EndChar

StartChar: Virgo
Encoding: 9805 9805 14
Width: 1912
Flags: HW
LayerCount: 2
Fore
SplineSet
1739 652 m 0
 1739 366.666666667 1613 116 1361 -100 c 1
 1373 -186.666666667 1424 -285 1514 -395 c 1
 1340 -395 l 1
 1298 -341.666666667 1260.66666667 -271 1228 -183 c 1
 1135.33333333 -235.666666667 1022 -272.666666667 888 -294 c 1
 888 -167 l 1
 1014.66666667 -141 1118.33333333 -104 1199 -56 c 1
 1189 8 1184 72.3333333333 1184 137 c 2
 1184 1037 l 2
 1184 1183.66666667 1162.66666667 1294.33333333 1120 1369 c 1
 1015.33333333 1256.33333333 938 1097.66666667 888 893 c 1
 888 0 l 1
 739 0 l 1
 739 987 l 2
 739 1170.33333333 717.333333333 1297.66666667 674 1369 c 1
 572 1250.33333333 495 1103.33333333 443 928 c 1
 443 0 l 1
 295 0 l 1
 295 1075 l 2
 295 1223.66666667 254.333333333 1358.66666667 173 1480 c 1
 329 1480 l 1
 384.333333333 1404 422.333333333 1306.33333333 443 1187 c 1
 493 1310.33333333 551 1408 617 1480 c 1
 762 1507 l 1
 828.666666667 1421.66666667 870.666666667 1308.33333333 888 1167 c 1
 922 1273.66666667 982.333333333 1378 1069 1480 c 1
 1212 1507 l 1
 1292 1395.66666667 1332 1272.66666667 1332 1138 c 2
 1332 856 l 1
 1372 969.333333333 1414.33333333 1058 1459 1122 c 1
 1581 1167 l 1
 1686.33333333 1003.66666667 1739 832 1739 652 c 0
1591 644 m 0
 1591 762.666666667 1565 877.666666667 1513 989 c 1
 1439.66666667 898.333333333 1379.33333333 777.333333333 1332 626 c 1
 1332 39 l 1
 1504.66666667 214.333333333 1591 416 1591 644 c 0
EndSplineSet
EndChar

StartChar: Libra
Encoding: 9806 9806 15
Width: 1937
Flags: HW
LayerCount: 2
Fore
SplineSet
1764 592 m 1
 1135 592 l 1
 1135 730 l 1
 1242.33333333 799.333333333 1296 892.333333333 1296 1009 c 0
 1296 1098.33333333 1263.83333333 1174.5 1199.5 1237.5 c 0
 1135.16666667 1300.5 1058.33333333 1332 969 1332 c 0
 879.666666667 1332 802.833333333 1300.5 738.5 1237.5 c 0
 674.166666667 1174.5 642 1098.33333333 642 1009 c 0
 642 892.333333333 695.333333333 799.333333333 802 730 c 1
 802 592 l 1
 173 592 l 1
 173 740 l 1
 614 740 l 1
 534 822 494 914 494 1016 c 0
 494 1144.66666667 541 1254.16666667 635 1344.5 c 0
 729 1434.83333333 840.333333333 1480 969 1480 c 0
 1098.33333333 1480 1209.83333333 1434.83333333 1303.5 1344.5 c 0
 1397.16666667 1254.16666667 1444 1144.66666667 1444 1016 c 0
 1444 914 1404 822 1324 740 c 1
 1764 740 l 1
 1764 592 l 1
1764 148 m 1
 173 148 l 1
 173 296 l 1
 1764 296 l 1
 1764 148 l 1
EndSplineSet
EndChar

StartChar: Scorpius
Encoding: 9807 9807 16
Width: 2099
Flags: HW
LayerCount: 2
Fore
SplineSet
1926 -211 m 1
 1692 -415 l 1
 1692 -271 l 1
 1556 -271 l 2
 1420 -271 1322.66666667 -232.666666667 1264 -156 c 0
 1212 -88.6666666667 1186 15.6666666667 1186 157 c 2
 1186 1049 l 2
 1186 1199 1164.33333333 1306.66666667 1121 1372 c 1
 1010.33333333 1244.66666667 933.333333333 1085.33333333 890 894 c 1
 890 0 l 1
 742 0 l 1
 742 996 l 2
 742 1175.33333333 720.333333333 1300.66666667 677 1372 c 1
 571 1252.66666667 494 1104.33333333 446 927 c 1
 446 0 l 1
 298 0 l 1
 298 1056 l 2
 298 1232 256.333333333 1373.33333333 173 1480 c 1
 332 1480 l 1
 388 1394.66666667 426 1297.66666667 446 1189 c 1
 492.666666667 1305 550.666666667 1402 620 1480 c 1
 763 1509 l 1
 829.666666667 1431 872 1319 890 1173 c 1
 926.666666667 1277.66666667 986.333333333 1380 1069 1480 c 1
 1215 1509 l 1
 1294.33333333 1401 1334 1273.33333333 1334 1126 c 2
 1334 205 l 2
 1334 123.666666667 1335 73.6666666667 1337 55 c 0
 1343.66666667 -5.66666666667 1361 -51 1389 -81 c 0
 1431 -125.666666667 1501.66666667 -148 1601 -148 c 2
 1692 -148 l 1
 1692 0 l 1
 1926 -211 l 1
EndSplineSet
EndChar

StartChar: Sagittarius
Encoding: 9808 9808 17
Width: 1902
Flags: HW
LayerCount: 2
Fore
SplineSet
1729 686 m 1
 1583 663 l 1
 1508 1194 l 1
 841 526 l 1
 1155 212 l 1
 1050 108 l 1
 736 422 l 1
 275 -37 l 1
 173 65 l 1
 634 524 l 1
 320 838 l 1
 424 943 l 1
 738 629 l 1
 1406 1296 l 1
 875 1371 l 1
 898 1517 l 1
 1627 1415 l 1
 1729 686 l 1
EndSplineSet
EndChar

StartChar: Capricorn
Encoding: 9809 9809 18
Width: 2246
Flags: HW
LayerCount: 2
Fore
SplineSet
2073 383 m 0
 2073 277.666666667 2037.5 187.5 1966.5 112.5 c 0
 1895.5 37.5 1807.33333333 0 1702 0 c 0
 1561.33333333 0 1438.33333333 54.6666666667 1333 164 c 1
 1266.33333333 -10 1213.33333333 -121 1174 -169 c 0
 1103.33333333 -253.666666667 995.333333333 -296 850 -296 c 2
 716 -296 l 1
 716 -173 l 1
 779 -173 l 2
 880.333333333 -173 959.666666667 -151.666666667 1017 -109 c 0
 1065 -73.6666666667 1105.66666667 -17 1139 61 c 0
 1141.66666667 67.6666666667 1169.66666667 149.666666667 1223 307 c 1
 1187 370.333333333 1161.66666667 435 1147 501 c 0
 1142.33333333 525 1132.33333333 595 1117 711 c 2
 1080 994 l 2
 1056 1180 1027.33333333 1308.33333333 994 1379 c 1
 908 1277.66666667 834.666666667 1142.5 774 973.5 c 0
 713.333333333 804.5 683 652.666666667 683 518 c 2
 683 438 l 1
 536 438 l 1
 536 490 l 2
 536 578.666666667 521 707 491 875 c 0
 458.333333333 1056.33333333 425.333333333 1178.66666667 392 1242 c 0
 351.333333333 1319.33333333 287.666666667 1358 201 1358 c 2
 173 1358 l 1
 173 1480 l 1
 284 1480 l 2
 387.333333333 1480 459 1439.33333333 499 1358 c 0
 546.333333333 1261.33333333 589.333333333 1099 628 871 c 1
 684 1121.66666667 777.333333333 1324.66666667 908 1480 c 1
 1103 1518 l 1
 1150.33333333 1412.66666667 1190.33333333 1249.66666667 1223 1029 c 2
 1250 848 l 2
 1257.33333333 798 1263.33333333 753 1268 713 c 0
 1280.66666667 603.666666667 1295.66666667 522 1313 468 c 1
 1408.33333333 650 1540 741 1708 741 c 0
 1810 741 1896.33333333 706.666666667 1967 638 c 0
 2037.66666667 569.333333333 2073 484.333333333 2073 383 c 0
1950 381 m 0
 1950 450.333333333 1926.83333333 509 1880.5 557 c 0
 1834.16666667 605 1776.66666667 629 1708 629 c 0
 1562.66666667 629 1448.66666667 515.666666667 1366 289 c 1
 1473.33333333 170.333333333 1581.66666667 111 1691 111 c 0
 1767 111 1829.16666667 137 1877.5 189 c 0
 1925.83333333 241 1950 305 1950 381 c 0
EndSplineSet
EndChar

StartChar: Aquarius
Encoding: 9810 9810 19
Width: 2182
Flags: HW
LayerCount: 2
Fore
SplineSet
2009 939 m 1
 1894 888 l 1
 1775 1172 l 1
 1342 888 l 1
 1222 1172 l 1
 794 888 l 1
 674 1172 l 1
 242 888 l 1
 174 990 l 1
 729 1357 l 1
 851 1073 l 1
 1281 1357 l 1
 1401 1073 l 1
 1831 1357 l 1
 2009 939 l 1
2008 174 m 1
 1893 123 l 1
 1774 407 l 1
 1342 123 l 1
 1222 407 l 1
 794 123 l 1
 673 407 l 1
 241 123 l 1
 173 225 l 1
 728 592 l 1
 850 308 l 1
 1280 592 l 1
 1400 308 l 1
 1830 592 l 1
 2008 174 l 1
EndSplineSet
EndChar

StartChar: Pisces
Encoding: 9811 9811 20
Width: 1598
Flags: HW
LayerCount: 2
Fore
SplineSet
1425 -37 m 1
 1264 -37 l 1
 1173.33333333 66.3333333333 1100 183.333333333 1044 314 c 0
 982.666666667 454.666666667 952 588.666666667 952 716 c 1
 646 716 l 1
 646 587.333333333 615.666666667 453 555 313 c 0
 499 184.333333333 425.333333333 67.6666666667 334 -37 c 1
 173 -37 l 1
 390.333333333 192.333333333 499 443.333333333 499 716 c 1
 184 716 l 1
 184 827 l 1
 499 827 l 1
 485.666666667 1063.66666667 377 1293.66666667 173 1517 c 1
 326 1517 l 1
 512.666666667 1317 619.333333333 1087 646 827 c 1
 952 827 l 1
 978.666666667 1087 1085.33333333 1317 1272 1517 c 1
 1425 1517 l 1
 1221 1293.66666667 1112.33333333 1063.66666667 1099 827 c 1
 1414 827 l 1
 1414 716 l 1
 1099 716 l 1
 1099 443.333333333 1207.66666667 192.333333333 1425 -37 c 1
EndSplineSet
EndChar
